<svg width="104" height="78" viewBox="0 0 104 78" fill="none" xmlns="http://www.w3.org/2000/svg">
<rect x="1.3" y="1.3" width="101.4" height="75.4" rx="29.9" stroke="#C6C6C6" stroke-width="2.6"/>
<path d="M41.1741 33.9842C39.84 32.7835 37.785 32.8916 36.5843 34.2258C35.3836 35.5599 35.4917 37.6149 36.8259 38.8156L41.1741 33.9842ZM49.6809 46.0127L47.5068 48.4284L47.5068 48.4284L49.6809 46.0127ZM67.1741 38.8156C68.5083 37.6149 68.6164 35.5599 67.4157 34.2258C66.215 32.8916 64.16 32.7835 62.8259 33.9842L67.1741 38.8156ZM54.3191 46.0127L56.4932 48.4284L56.4932 48.4284L54.3191 46.0127ZM36.8259 38.8156L47.5068 48.4284L51.8551 43.597L41.1741 33.9842L36.8259 38.8156ZM62.8259 33.9842L52.1449 43.597L56.4932 48.4284L67.1741 38.8156L62.8259 33.9842ZM47.5068 48.4284C50.0612 50.7274 53.9388 50.7274 56.4932 48.4284L52.1449 43.597C52.0625 43.6712 51.9375 43.6712 51.8551 43.597L47.5068 48.4284Z" fill="#C6C6C6"/>
</svg>
