<svg width="258" height="78" viewBox="0 0 258 78" fill="none" xmlns="http://www.w3.org/2000/svg">
<rect x="258" y="78" width="258" height="78" rx="31.2" transform="rotate(-180 258 78)" fill="#E1FF4C"/>
<path d="M59.2 51V28.6H62.72V39.48L72.8 28.6H77.28L68.64 37.88L77.92 51H73.6L66.24 40.44L62.72 44.28V51H59.2ZM81.1852 49.016C79.6492 47.4587 78.8812 45.56 78.8812 43.32C78.8812 41.08 79.6492 39.192 81.1852 37.656C82.7426 36.0987 84.6412 35.32 86.8813 35.32C89.1213 35.32 91.0093 36.0987 92.5452 37.656C94.1026 39.192 94.8813 41.08 94.8813 43.32C94.8813 45.56 94.1026 47.4587 92.5452 49.016C91.0093 50.552 89.1213 51.32 86.8813 51.32C84.6412 51.32 82.7426 50.552 81.1852 49.016ZM83.4573 46.904C84.3746 47.8213 85.5159 48.28 86.8813 48.28C88.2466 48.28 89.3879 47.8213 90.3053 46.904C91.2226 45.9653 91.6813 44.7707 91.6813 43.32C91.6813 41.8693 91.2226 40.6853 90.3053 39.768C89.3879 38.8293 88.2466 38.36 86.8813 38.36C85.5159 38.36 84.3746 38.8293 83.4573 39.768C82.5399 40.6853 82.0812 41.8693 82.0812 43.32C82.0812 44.7707 82.5399 45.9653 83.4573 46.904ZM98.7237 51V35.64H101.924V41.72H109.444V35.64H112.644V51H109.444V44.6H101.924V51H98.7237ZM121.13 51V38.68H115.85V35.64H129.61V38.68H124.33V51H121.13ZM141.449 51V48.76C141.15 49.208 140.745 49.6347 140.233 50.04C139.081 50.8933 137.833 51.32 136.489 51.32C134.995 51.32 133.769 50.8827 132.809 50.008C131.849 49.1333 131.369 48.0773 131.369 46.84C131.369 45.5813 131.763 44.5253 132.553 43.672C133.363 42.8187 134.462 42.2747 135.849 42.04L141.449 41.08C141.449 40.248 141.15 39.5653 140.553 39.032C139.955 38.4773 139.187 38.2 138.249 38.2C137.31 38.2 136.339 38.552 135.337 39.256C134.974 39.512 134.611 39.8533 134.249 40.28L132.169 38.2C132.595 37.6453 133.107 37.1653 133.705 36.76C135.049 35.8 136.563 35.32 138.249 35.32C140.147 35.32 141.683 35.8853 142.857 37.016C144.051 38.1253 144.649 39.5333 144.649 41.24V51H141.449ZM141.449 44.12V43.64L136.969 44.44C135.369 44.7173 134.569 45.4107 134.569 46.52C134.569 47.096 134.793 47.5867 135.241 47.992C135.71 48.3973 136.339 48.6 137.129 48.6C138.345 48.6 139.369 48.1733 140.201 47.32C141.033 46.4667 141.449 45.4 141.449 44.12ZM149.434 51V35.64H152.634V42.68L159.194 35.64H163.194L157.274 41.88L163.674 51H159.994L155.194 44.12L152.634 46.84V51H149.434ZM169.59 51V38.68H164.31V35.64H178.07V38.68H172.79V51H169.59ZM195.821 51V35.64H199.021V51H195.821ZM184.461 48.12H187.661C188.536 48.12 189.208 47.9067 189.677 47.48C190.147 47.0533 190.381 46.4667 190.381 45.72C190.381 44.9733 190.147 44.3867 189.677 43.96C189.208 43.5333 188.536 43.32 187.661 43.32H184.461V48.12ZM181.261 51V35.64H184.461V40.44H187.661C189.475 40.44 190.915 40.9307 191.981 41.912C193.048 42.8933 193.581 44.1627 193.581 45.72C193.581 47.2773 193.048 48.5467 191.981 49.528C190.915 50.5093 189.475 51 187.661 51H181.261Z" fill="#424242"/>
</svg>
